# xmcd
#
# Track frame offsets:
#	150
#	19705
#	44133
#	70202
#	95924
#	113846
#	136940
#	169927
#	190636
#	207892
#	225325
#	250547
#
# Disc length: 3880 seconds
#
# Revision: 4258988917
# Processed by: cddbd v1.5.2PL0 Copyright (c) Steve Scherf et al.
# Submitted via: EZCDAudioConverter 8.0.2.1
#
DISCID=a00f260c
DTITLE=Hương Thủy - Lý Lẽ Trái Tim
DYEAR=2008
DGENRE=
TTITLE0=Hương Thủy - Ngợi ca quê hương em
TTITLE1=Hương Thủy - Trên dòng sông nhỏ
TTITLE2=Hương Thủy, Mai Quốc Huy - Sầu tím thiệp hồng
TTITLE3=Hương Thủy - Mếu hai đứa mình
TTITLE4=Hương Thủy, Thế Sơn - Đoạn cuối cho cuộc tình
TTITLE5=Hương Thủy - Đời không như là mơ
TTITLE6=Hương Thủy, Châu Thanh - Thương quá Việt Nam
TTITLE7=Hương Thủy - Chiều hạ vàng
TTITLE8=Hương Thủy, Duy Trường - Lý Lẽ Trái Tim
TTITLE9=Hương Thủy, Thế Sơn - Về quê cưới em
TTITLE10=Hương Thủy - Mẹ tôi
TTITLE11=Hương Thủy, Mạnh Quỳnh - Tân cổ. Bạc trắng lửa hồng
EXTD=
EXTT0=
EXTT1=
EXTT2=
EXTT3=
EXTT4=
EXTT5=
EXTT6=
EXTT7=
EXTT8=
EXTT9=
EXTT10=
EXTT11=
PLAYORDER=
